<svg id="グループ_2" data-name="グループ 2" xmlns="http://www.w3.org/2000/svg" xmlns:xlink="http://www.w3.org/1999/xlink" width="752" height="716.23" viewBox="0 0 752 716.23">
  <defs>
    <style>
      .cls-1 {
        fill: none;
      }

      .cls-2 {
        clip-path: url(#clip-path);
      }

      .cls-3 {
        fill: #373838;
      }

      .cls-4 {
        fill: #dedc00;
      }
    </style>
    <clipPath id="clip-path">
      <rect id="長方形_1" data-name="長方形 1" class="cls-1" width="752" height="716.23"/>
    </clipPath>
  </defs>
  <g id="グループ_1" data-name="グループ 1" class="cls-2">
    <path id="パス_1" data-name="パス 1" class="cls-3" d="M130.071,148.479a4.844,4.844,0,0,0,.552.1,48.8,48.8,0,0,1,2.087-12.158c.181-.575.362-1.153.564-1.693,9.117-24.384,39.1-14.2,59.729-20.646,18.535-5.79,7.011-29.634,26.643-37.453-3.329,31.79,40.881,25.882,53.356,54.547a36.633,36.633,0,0,1,1.62,4.853,44.418,44.418,0,0,1,1.651,11.465c0,.11.026.2.026.308,5.44,2.8,11.963-22.9,4.306-48.949,4.755-14.673,10.045-42.06,2.28-80.582-9.232-45.8-39.529,5.755-53.234,32.45A109.1,109.1,0,0,0,203.925,47.8a104.685,104.685,0,0,0-22.456,2.329C167.1,22.778,138.812-23.011,129.946,20.97c-6.161,30.574-4.09,54.131-.6,69.908-12.86,26.859-8.885,56.484.723,57.6" transform="translate(163.371 0)"/>
    <path id="パス_2" data-name="パス 2" class="cls-3" d="M403.405,355.783A257.323,257.323,0,0,0,436.8,328.091c-7.95-28.808-47.723-93.019-66.515-130.285-5.184-10.28-11.738-17.718-20.073-22.736,10.716-37.754-21.473-59.194-25.366-99.183-8.875,24.858-25.849,45.9-41.861,58.193l-.035.028,10.223,31.5c.153.427.235.817.373,1.237a52.917,52.917,0,0,1-5.243,16.328c-14.346,27.716-50.912,34.83-65.622-15.563.216-.674.357-1.313.606-2l8.331-25.669,1.409-4.339h0c-17.645-13.29-35.037-38.1-44-64.559-5.278,38.564-35.951,73.221-26.317,106.142-6.69,3.51-12.651,8.089-17.033,14.337-21.081,33.027-53.786,95.421-64.648,131.367a37.128,37.128,0,0,0,.561,8.655,256.82,256.82,0,0,0,31.252,25.291c-4.071-21.541-6.823-37.43-7.159-37.773-.852-1.58-1.16-2.7-.667-4.041,2.9-5.4,6.041-16.241,12.769-15.546h281.3c5.253-.533,12.158,13.647,12.473,14.95a1.575,1.575,0,0,1,.08.6,10.276,10.276,0,0,1-.026,4.041c-1.362,1.282-4.323,16.377-8.2,36.718" transform="translate(109.148 95.771)"/>
    <path id="パス_3" data-name="パス 3" class="cls-4" d="M182.2,203.741c-4.694-14.2-27.322-14.2-32.018,0a18.037,18.037,0,0,0-.826,4.506c-.028.425-.106.815-.1,1.261-.324,21.97,34.19,21.97,33.868,0,.007-.446-.07-.836-.1-1.261a18.04,18.04,0,0,0-.827-4.506" transform="translate(201.193 260.293)"/>
    <path id="パス_4" data-name="パス 4" class="cls-3" d="M60.328,332.945,33.215,232.668H0V400.2H23.934V277.905L57.154,400.2H84.266V232.668H60.328Z" transform="translate(0.001 313.641)"/>
    <path id="パス_5" data-name="パス 5" class="cls-3" d="M95.69,231.65c-26.38,0-40.792,15.316-40.792,42.123v88.065c0,26.8,14.412,42.123,40.792,42.123s40.79-15.319,40.79-42.123V273.773c0-26.807-14.412-42.123-40.79-42.123m13.921,131.865c0,11.963-5.375,16.511-13.921,16.511s-13.921-4.548-13.921-16.511v-91.42c0-11.97,5.37-16.511,13.921-16.511s13.921,4.541,13.921,16.511Z" transform="translate(74.004 312.269)"/>
    <path id="パス_6" data-name="パス 6" class="cls-3" d="M271.556,232.669H230.524V400.2h41.032c26.868,0,40.06-14.6,40.06-41.41V274.069c0-26.8-13.191-41.4-40.06-41.4m13.191,127.324c0,11.963-5.13,16.272-13.677,16.272H257.388V256.6H271.07c8.547,0,13.677,4.309,13.677,16.272Z" transform="translate(310.751 313.642)"/>
    <path id="パス_7" data-name="パス 7" class="cls-3" d="M345.292,232.668H308.9L281.053,400.2h24.915l4.64-32.79h31.024l4.64,32.79h26.866ZM314.029,344.676,326,260.189l12.212,84.486Z" transform="translate(378.865 313.641)"/>
    <path id="パス_8" data-name="パス 8" class="cls-3" d="M201.663,236.268,175.21,395.424h24.109l4.489-31.731h30.022l4.492,31.731h25.995L237.865,236.268ZM207.12,341.7,218.7,259.941,230.52,341.7Z" transform="translate(236.186 318.494)"/>
    <path id="パス_9" data-name="パス 9" class="cls-3" d="M164.811,350.959,147.989,236.267H110.921V395.423h22.691V272.68l19.381,122.743h21.743L194.121,272.68V395.423H218.7V236.267H181.632Z" transform="translate(149.524 318.493)"/>
  </g>
</svg>
